<?xml version="1.0" encoding="UTF-8" standalone="no"?>
<!-- Created with Inkscape (http://www.inkscape.org/) -->

<svg
   xmlns:dc="http://purl.org/dc/elements/1.1/"
   xmlns:cc="http://creativecommons.org/ns#"
   xmlns:rdf="http://www.w3.org/1999/02/22-rdf-syntax-ns#"
   xmlns:svg="http://www.w3.org/2000/svg"
   xmlns="http://www.w3.org/2000/svg"
   xmlns:sodipodi="http://sodipodi.sourceforge.net/DTD/sodipodi-0.dtd"
   xmlns:inkscape="http://www.inkscape.org/namespaces/inkscape"
   width="744.09448819"
   height="1052.3622047"
   id="svg2"
   version="1.1"
   inkscape:version="0.48.4 r9939"
   sodipodi:docname="New document 1">
  <defs
     id="defs4" />
  <sodipodi:namedview
     id="base"
     pagecolor="#ffffff"
     bordercolor="#666666"
     borderopacity="1.0"
     inkscape:pageopacity="0.0"
     inkscape:pageshadow="2"
     inkscape:zoom="0.68769531"
     inkscape:cx="585.62932"
     inkscape:cy="532.36272"
     inkscape:document-units="px"
     inkscape:current-layer="layer1"
     showgrid="false"
     inkscape:window-width="1356"
     inkscape:window-height="693"
     inkscape:window-x="0"
     inkscape:window-y="0"
     inkscape:window-maximized="1" />
  <metadata
     id="metadata7">
    <rdf:RDF>
      <cc:Work
         rdf:about="">
        <dc:format>image/svg+xml</dc:format>
        <dc:type
           rdf:resource="http://purl.org/dc/dcmitype/StillImage" />
        <dc:title></dc:title>
      </cc:Work>
    </rdf:RDF>
  </metadata>
  <g
     inkscape:label="Layer 1"
     inkscape:groupmode="layer"
     id="layer1">
    <path
       style="fill:#000000"
       d="m 188.39513,814.23431 c -1.0491,-0.64838 -1.61333,-9.19809 -2.58183,-39.12222 -0.68164,-21.06089 -1.90346,-57.86752 -2.71516,-81.79252 -1.67635,-49.41088 -2.40825,-44.65643 7.34112,-47.68868 6.62917,-2.06181 25.91391,-2.34881 30.48251,-0.45366 1.58878,0.65907 3.03836,1.04863 3.22129,0.86569 0.34937,-0.34936 -1.61975,-34.58404 -6.23748,-108.44392 -1.52058,-24.32132 -2.48465,-44.50061 -2.14239,-44.84287 1.50874,-1.50874 20.52153,-3.42302 34.06205,-3.42949 19.9386,-0.01 32.66449,2.63975 41.70784,8.68277 3.24661,2.16947 3.55409,2.21106 4.24713,0.57448 0.41092,-0.97038 2.97822,-11.43932 5.70511,-23.26432 2.72689,-11.825 7.25279,-31.175 10.05756,-43 4.35743,-18.3711 11.19815,-47.76379 12.69191,-54.5336 0.53767,-2.43677 3.13204,-2.58138 -36.70171,2.04572 -15.675,1.82081 -28.61416,3.1988 -28.75368,3.06221 -0.21534,-0.21082 4.28396,-22.96471 10.69251,-54.07433 l 1.648,-8 16.95658,0 c 21.33669,0 110.13699,2.43521 113.34966,3.10844 l 2.39307,0.50148 -0.66573,12.69504 c -0.36615,6.98227 -0.93894,16.55094 -1.27286,21.2637 l -0.60713,8.56867 -24.62021,2.78442 c -13.54112,1.53144 -24.68023,2.85054 -24.75359,2.93134 -0.18933,0.20852 4.50033,96.62087 4.84698,99.64691 0.15752,1.375 1.50878,-2.9 3.00279,-9.5 1.49402,-6.6 6.493,-27.75 11.10885,-47 l 8.39245,-35 3.89116,-0.69237 c 2.14013,-0.3808 4.96909,-0.7183 6.28658,-0.75 l 2.39544,-0.0576 -0.51848,31.57654 -0.51847,31.57655 2.16482,-0.54334 c 1.19065,-0.29883 4.6856,-0.8396 7.76654,-1.20171 3.08095,-0.3621 6.06333,-0.94365 6.62751,-1.29234 0.82304,-0.50867 7.18721,-87.5315 7.18721,-98.27709 0,-2.25687 0.67335,-2.75147 5.68794,-4.17799 3.12836,-0.88995 5.77418,-1.51515 5.8796,-1.38935 0.10542,0.1258 2.05181,24.07873 4.32532,53.22873 2.2735,29.15 4.42808,55.025 4.78795,57.5 l 0.6543,4.5 0.84524,-5.5 c 0.70769,-4.60492 3.35643,-18.80073 10.96191,-58.75 l 0.9995,-5.25 16.6791,0.009 c 9.1735,0.005 19.053,0.2938 21.9543,0.64227 l 5.2752,0.63359 -0.6499,9.10772 c -0.3575,5.00925 -0.9579,9.44933 -1.3343,9.86684 -0.3764,0.41751 -7.7453,1.05046 -16.3753,1.40656 -10.2394,0.42251 -15.7093,1.02734 -15.7438,1.74089 -0.029,0.60139 -0.6503,4.69344 -1.3803,9.09344 -0.73,4.4 -1.1296,8.3375 -0.888,8.75 0.2416,0.4125 5.1377,0.75 10.8803,0.75 7.7057,0 10.4313,0.32747 10.4042,1.25 -0.073,2.49853 -2.6701,14.79014 -3.2461,15.36617 -0.3254,0.32544 -5.2314,1.37008 -10.9022,2.32145 l -10.3104,1.72974 -1.826,14.75929 c -1.0043,8.11761 -1.5736,15.01159 -1.2653,15.31997 0.3084,0.30838 15.6562,-1.59384 34.1062,-4.22714 18.4501,-2.6333 33.8265,-4.50685 34.1699,-4.16344 0.3434,0.34341 -0.5433,7.26628 -1.9705,15.38417 -1.4271,8.11788 -3.1448,18.02229 -3.817,22.00979 l -1.2222,7.25 -13.1832,0 -13.1833,0 -0.6533,15.75 c -0.3592,8.6625 -0.6547,27.40551 -0.6565,41.65113 l 0,25.90113 15.75,-0.66607 c 8.6625,-0.36634 22.1625,-0.95261 30,-1.30282 13.6004,-0.60772 14.25,-0.54933 14.25,1.28078 0,1.05463 -1.125,11.30851 -2.5,22.7864 -1.375,11.47788 -2.5,21.38268 -2.5,22.01066 0,1.05016 12.1571,1.19131 25.25,0.29317 2.3534,-0.16144 3.75,0.18075 3.75,0.91883 0,2.43646 -7.3342,20.20291 -11.7143,28.37678 -13.5346,25.25748 -29.0527,37.87092 -64.0357,52.04967 -4.5375,1.83906 -8.237,3.59273 -8.2211,3.89704 0.016,0.30431 6.4284,4.18355 14.25,8.62054 7.8216,4.43698 26.0336,14.76672 40.4711,22.95498 14.4375,8.18826 26.2146,15.13299 26.1714,15.43275 -0.1043,0.72397 -43.6595,38.45679 -44.8492,38.85387 -0.773,0.258 -29.9968,-35.36005 -44.7997,-54.60194 -2.3251,-3.02234 -4.4332,-5.70089 -4.6846,-5.95233 -0.2515,-0.25145 -0.1923,11.9141 0.1316,27.03454 l 0.5887,27.49172 -12.9041,0.61708 c -7.0973,0.3394 -15.94163,0.84185 -19.65413,1.11657 -5.08601,0.37634 -6.75,0.18314 -6.75,-0.78374 0,-1.76738 1.86716,-17.445 2.58807,-21.73075 l 0.58874,-3.5 -2.3384,2.12394 c -8.74515,7.94307 -19.56574,12.34299 -30.40691,12.36419 -15.66813,0.0306 -28.45332,-7.83348 -39.60538,-24.36113 -0.37858,-0.56107 -3.517,1.66087 -7.16187,5.07047 -11.54379,10.79865 -26.22275,15.66254 -40.5476,13.43551 -8.06672,-1.25411 -17.04916,-4.85707 -22.80103,-9.14577 l -3.65917,-2.72835 -4.23434,5.62057 c -15.01616,19.93215 -44.23944,31.34883 -85.56984,33.42964 -4.75625,0.23945 -9.25185,0.062 -9.99022,-0.39433 z m 27.16695,-76.78005 c 13.39457,-3.8305 19.971,-9.1115 19.971,-16.0371 0,-6.17462 -3.40773,-8.52838 -12.82636,-8.85934 -4.2205,-0.1483 -10.3505,0.29992 -13.62222,0.99605 l -5.94857,1.2657 0.21452,6 c 0.11799,3.3 0.48477,8.8125 0.81507,12.25 0.70115,7.2969 0.91944,7.38088 11.39656,4.38469 z m 195.01918,-8.68174 c 6.57888,-6.4241 8.14571,-16.28953 3.96028,-24.93548 -6.08043,-12.56048 -21.53569,-12.86532 -27.75846,-0.54751 -4.40811,8.72575 -2.11661,22.17383 4.54911,26.69721 4.45531,3.02339 5.49265,3.31513 10.51467,2.95722 3.99404,-0.28464 5.48144,-0.995 8.7344,-4.17144 z m -83.24852,1.14206 c 3.73755,-1.94464 6.82383,-5.44965 8.65261,-9.82654 1.9627,-4.69739 1.9627,-8.83955 0,-13.53694 -3.17323,-7.59461 -9.1365,-11.6307 -16.78428,-11.36001 -10.19351,0.36078 -16.89733,7.29134 -17.00149,17.57651 -0.10774,10.63858 7.15782,18.55197 17.0332,18.55197 2.96979,0 6.61477,-0.63224 8.09996,-1.40499 z m 149.3089,-24.46329 c 6.61,-6.79707 12.4401,-18.01621 16.1779,-31.13172 2.7666,-9.70803 5.2821,-21.80111 4.6442,-22.32712 -0.38,-0.31334 -32.4963,2.32634 -45.1807,3.71345 -4.7115,0.51523 -4.75,0.49553 -4.75,-2.43344 0,-1.62409 -0.4102,-2.95289 -0.9116,-2.95289 -0.5015,0 -6.15555,0.72093 -12.56465,1.60206 -6.40911,0.88114 -11.81151,1.44348 -12.00534,1.24965 -0.19383,-0.19384 -0.67748,-6.75614 -1.07478,-14.5829 l -0.72235,-14.23048 -3.11329,-0.58406 c -1.71232,-0.32123 -5.32778,-0.44235 -8.03438,-0.26916 l -4.92108,0.31489 -3.31432,12 c -1.82288,6.6 -3.31969,12.73936 -3.32625,13.64301 -0.017,2.34638 -2.07831,2.85699 -11.53334,2.85699 l -8.35785,0 -0.31036,3.73563 -0.31037,3.73562 -4.26078,-0.31287 c -21.83582,-1.60342 -69.35465,-5.94047 -69.7833,-6.36913 -0.29933,-0.29933 0.1073,-6.78686 0.90363,-14.41674 0.79633,-7.62988 1.32981,-13.9964 1.18551,-14.14783 -0.1443,-0.15143 -4.22979,5.00668 -9.07885,11.46247 l -8.81649,11.73778 -19.29865,-19.96246 c -10.61426,-10.97936 -19.31044,-19.6998 -19.32486,-19.37876 -0.0144,0.32105 2.26637,6.39605 5.06841,13.5 2.80205,7.10396 6.3687,16.34405 7.9259,20.53353 l 2.83127,7.61723 -9.96174,1.13277 c -5.47895,0.62302 -11.07061,1.13276 -12.42589,1.13276 -3.24764,0 -3.10821,1.01395 0.62742,4.56291 7.12128,6.76542 9.44418,16.86015 6.4365,27.97142 -0.96603,3.56882 -2.15505,6.73512 -2.64225,7.03623 -2.09951,1.29757 -0.50576,2.24472 4.86417,2.89072 8.00018,0.96242 14.1063,2.51252 18.46016,4.68631 2.04059,1.01883 4.13118,1.85241 4.64576,1.85241 0.51457,0 2.37587,-2.24449 4.13622,-4.98774 7.65481,-11.929 22.13242,-21.12424 36.50786,-23.18742 14.99881,-2.15264 30.41977,3.24785 41.63681,14.58142 l 6.23394,6.2987 4.2219,-5.61637 c 4.75511,-6.32569 10.6386,-10.90239 19.13118,-14.88193 5.072,-2.37669 6.99527,-2.70666 15.77617,-2.70666 9.18563,0 10.55276,0.26182 16.7876,3.21506 7.70348,3.64887 17.54108,12.4332 21.51398,19.21056 2.46813,4.21038 2.62563,4.30765 3.23819,2 0.35413,-1.33409 1.23169,-8.2108 1.95009,-15.28156 l 1.3062,-12.85595 8.602,0.684 c 14.6664,1.16621 13.1019,-1.53664 13.1019,22.6363 0,15.5914 0.3047,20.89159 1.201,20.89159 0.6605,0 3.7689,-2.64072 6.9076,-5.86828 z m -261.0374,-11.16802 c 3.78098,-1.92891 6.92884,-6.22648 6.92884,-9.45949 0,-0.87732 -1.10455,-2.69966 -2.45455,-4.04966 -2.0903,-2.09031 -3.39618,-2.45455 -8.79999,-2.45455 -3.49001,0 -6.77296,0.42544 -7.29546,0.94542 -0.5225,0.51997 -0.80296,4.84696 -0.62325,9.61553 l 0.32675,8.67012 4.01502,-0.64203 c 2.20825,-0.35311 5.76444,-1.53452 7.90264,-2.62534 z m 177.66794,-110.4637 c 5.80431,-14.3 13.99487,-34.55 18.20124,-45 l 7.64796,-19 5.5792,-0.29612 5.57919,-0.29613 3.21234,11.79613 c 1.76679,6.48786 5.15335,18.54612 7.52569,26.79612 2.37233,8.25 6.21044,21.85712 8.52914,30.23804 2.3187,8.38092 4.5477,15.03291 4.9534,14.78221 0.4056,-0.2507 1.0026,-3.28282 1.3265,-6.73804 0.3239,-3.45521 2.8349,-21.58221 5.5798,-40.28221 2.745,-18.7 5.2846,-36.475 5.6436,-39.5 l 0.6527,-5.5 -21.5849,0.28789 c -11.87174,0.15833 -21.58496,0.068 -21.58496,-0.20078 0,-0.26877 0.42077,-2.64832 0.93504,-5.28789 0.51428,-2.63957 1.22274,-6.55641 1.57437,-8.70408 l 0.63932,-3.90486 -11.07437,0.67261 -11.07436,0.67261 0.0148,-3.76775 c 0.008,-2.07226 0.45778,-10.25563 0.99915,-18.18526 0.54138,-7.92963 0.83994,-14.56191 0.66346,-14.73839 -0.17648,-0.17648 -4.0011,0.21553 -8.49916,0.87113 l -8.17825,1.19199 0,16.25108 0,16.25107 -3.25,0.50573 c -1.7875,0.27815 -6.85,0.76396 -11.25,1.07958 -4.4,0.31562 -10.3625,0.83528 -13.25,1.15481 l -5.25,0.58096 0,4.65417 0,4.65417 -26.04102,2.60496 c -14.32256,1.43273 -26.21487,2.77881 -26.42735,2.99129 -0.21248,0.21248 0.46629,2.85652 1.50837,5.87564 2.44443,7.08195 2.62959,22.34667 0.36462,30.05782 -5.29718,18.03434 -18.64493,30.86993 -38.98087,37.48511 -4.64946,1.51245 -8.32244,2.88103 -8.16218,3.04129 0.58243,0.58243 47.02856,18.44742 47.26544,18.18013 0.13406,-0.15127 0.97947,-7.92503 1.8787,-17.27503 5.47555,-56.93383 6.66532,-68.90319 6.86821,-69.09584 0.36678,-0.34827 60.98013,-4.48428 61.27367,-4.18108 0.30164,0.31156 -5.48848,33.05114 -5.92186,33.48452 -0.15285,0.15285 -8.90748,2.45748 -19.45473,5.1214 -10.54724,2.66391 -19.33838,5.02967 -19.53585,5.25724 -0.19747,0.22757 -0.61876,3.05075 -0.93619,6.27373 l -0.57716,5.85998 6.6891,-0.68578 c 3.67901,-0.37718 7.72433,-0.93116 8.98961,-1.23106 2.24502,-0.53213 2.28342,-0.41574 1.59221,4.82581 -1.41045,10.69581 -0.99846,10.2481 -10.46387,11.37108 l -8.42885,1 -1.62039,12.5 c -0.89122,6.875 -1.54591,12.5953 -1.45488,12.71179 0.21524,0.27541 27.09591,-3.14292 40.50141,-5.15044 5.73437,-0.85874 10.79687,-1.56135 11.25,-1.56135 0.45312,0 0.85565,3.2625 0.8945,7.25 l 0.0706,7.25 2.02228,-4.5 c 1.11225,-2.475 6.77125,-16.2 12.57555,-30.5 z m 23.59036,19.51365 c 2.55145,-0.0123 2.77532,-0.28385 2.27848,-2.76365 -0.30303,-1.5125 -0.67629,-8.03701 -0.82945,-14.4989 -0.15317,-6.4619 -0.61599,-11.7494 -1.02849,-11.75 -0.4125,-6.1e-4 -0.75476,0.7864 -0.76057,1.7489 -0.006,0.9625 -1.58082,7.34602 -3.5,14.1856 -1.91919,6.83957 -3.48943,12.85456 -3.48943,13.36663 0,0.51207 1.0125,0.65969 2.25,0.32806 1.2375,-0.33164 3.52325,-0.60913 5.07946,-0.61664 z M 256.03308,561.33478 c 6.01759,-2.62297 8.70489,-6.09217 9.26932,-11.96631 0.85206,-8.8675 -4.19078,-13.0489 -15.7372,-13.0489 -7.06217,0 -6.65287,-1.40078 -4.54011,15.53801 0.82061,6.57909 1.49561,12.08306 1.5,12.23104 0.0166,0.55793 5.6603,-1.07669 9.50799,-2.75384 z"
       id="path3007"
       inkscape:connector-curvature="0" />
  </g>
</svg>
