<?xml version="1.0" encoding="UTF-8" standalone="no"?>
<!-- Creator: CorelDRAW -->

<svg
   xmlns:dc="http://purl.org/dc/elements/1.1/"
   xmlns:cc="http://creativecommons.org/ns#"
   xmlns:rdf="http://www.w3.org/1999/02/22-rdf-syntax-ns#"
   xmlns:svg="http://www.w3.org/2000/svg"
   xmlns="http://www.w3.org/2000/svg"
   xmlns:sodipodi="http://sodipodi.sourceforge.net/DTD/sodipodi-0.dtd"
   xmlns:inkscape="http://www.inkscape.org/namespaces/inkscape"
   xml:space="preserve"
   width="950"
   height="601.17999"
   style="fill-rule:evenodd"
   viewBox="0 0 268.11111 169.66635"
   version="1.1"
   inkscape:version="0.48.3.1 r9886"
   sodipodi:docname="wasorarealbook.svg"
   id="svg2"><metadata
   id="metadata18"><rdf:RDF><cc:Work
       rdf:about=""><dc:format>image/svg+xml</dc:format><dc:type
         rdf:resource="http://purl.org/dc/dcmitype/StillImage" /></cc:Work></rdf:RDF></metadata><sodipodi:namedview
   pagecolor="#ffffff"
   bordercolor="#666666"
   borderopacity="1"
   objecttolerance="10"
   gridtolerance="10"
   guidetolerance="10"
   inkscape:pageopacity="0"
   inkscape:pageshadow="2"
   inkscape:window-width="1356"
   inkscape:window-height="693"
   id="namedview16"
   showgrid="false"
   inkscape:zoom="0.41367534"
   inkscape:cx="1234.2903"
   inkscape:cy="261.28048"
   inkscape:window-x="0"
   inkscape:window-y="0"
   inkscape:window-maximized="1"
   inkscape:current-layer="svg2"
   fit-margin-top="0"
   fit-margin-left="0"
   fit-margin-right="0"
   fit-margin-bottom="0" />
 <defs
   id="defs4">
  <style
   type="text/css"
   id="style6">
   
    .str0 {stroke:black;stroke-width:0.0762}
    .fil0 {fill:black}
   
  </style>
 
  
  <sodipodi:namedview
   inkscape:window-maximized="1"
   inkscape:window-y="0"
   inkscape:window-x="0"
   inkscape:window-height="693"
   inkscape:window-width="1356"
   showgrid="false"
   inkscape:current-layer="layer1"
   inkscape:document-units="px"
   inkscape:cy="532.36272"
   inkscape:cx="585.62932"
   inkscape:zoom="0.68769531"
   inkscape:pageshadow="2"
   inkscape:pageopacity="0.0"
   borderopacity="1.0"
   bordercolor="#666666"
   pagecolor="#ffffff"
   id="base" />
  
  
 
   
   
   
  </defs>
 <path
   id="path3007"
   class="fil0 str0"
   d="m 77.510251,169.4517 c -0.3697,-0.2285 -0.5686,-3.2413 -0.9098,-13.7862 -0.2403,-7.4217 -0.6707,-20.3919 -0.9568,-28.8228 -0.5907,-17.4119 -0.8487,-15.7364 2.5869,-16.8049 2.3361,-0.7266 9.131803,-0.8278 10.741703,-0.1598 0.5599,0.2322 1.0707,0.3695 1.1352,0.305 0.123,-0.1231 -0.5709,-12.187098 -2.198,-38.21461 -0.5358,-8.5705 -0.8756,-15.6815 -0.7549,-15.8022 0.5317,-0.5316 7.2316,-1.2062 12.003203,-1.2085 7.026103,-0.0034 11.510603,0.9302 14.697403,3.0597 2.4036,1.6058 4.1166,3.0265 5.3001,6.4561 0.8615,2.4956 0.9266,7.8748 0.1285,10.592002 -1.8666,6.35521 -6.5702,10.87831 -13.7364,13.20931 -1.6385,0.5331 -2.9328,1.0153 -2.8763,1.0718 0.2052,0.2052 16.5724,6.5007 16.6558,6.4065 0.0472,-0.0532 0.3452,-2.7926 0.662,-6.0875 1.9295,-20.062812 2.3488,-24.280712 2.4203,-24.348612 0.1292,-0.1227 21.4887,-1.5803 21.5922,-1.4734 0.1063,0.1098 -1.9341,11.646902 -2.0868,11.799602 -0.0538,0.0538 -3.1389,0.8659 -6.8556,1.80461 -3.7167,0.9387 -6.8146,1.7725 -6.8843,1.8527 -0.0695,0.0801 -0.218,1.0751 -0.3299,2.2107 l -0.2034,2.0651 2.3572,-0.2416 c 1.2964,-0.1329 2.7219,-0.3282 3.1678,-0.4338 0.7911,-0.1875 0.8047,-0.1465 0.5611,1.7005 -0.497,3.7691 -0.3519,3.6114 -3.6874,4.0071 l -2.9702,0.3524 -0.5709,4.4049 c -0.3141,2.4226 -0.5448,4.4384 -0.5127,4.4794 0.0758,0.0971 9.5483,-1.1076 14.2723,-1.8149 2.0207,-0.3026 3.8047,-0.5502 3.9644,-0.5502 0.1597,0 0.3015,1.1497 0.3153,2.5548 l 0.0249,2.554798 0.7126,-1.585798 c 0.392,-0.8721 2.3862,-5.7087 4.4316,-10.7478 l -6e-4,0 c 2.0454,-5.0391 4.9317,-12.17511 6.4139,-15.857612 l 2.695,-6.6954 1.9661,-0.1043 1.9661,-0.1044 1.132,4.1568 c 0.6226,2.2863 1.816,6.535502 2.652,9.442712 0.836,2.9072 2.1885,7.7022 3.0056,10.6556 0.8171,2.9534 1.6025,5.2975 1.7455,5.209 0.1429,-0.0883 0.3534,-1.1568 0.4675,-2.3744 0.1142,-1.2176 0.9991,-7.6054 1.9663,-14.195 0.9673,-6.589712 1.8622,-12.853512 1.9887,-13.919312 l 0.23,-1.9382 0.7762,-9.363 7.1322,-2.9434 c -1.2999,10.9545 -2.3281,21.3178 -2.3295,32.357412 l 0,9.1273 5.5502,-0.2347 c 3.0526,-0.1291 7.8098,-0.3357 10.5716,-0.4591 4.7926,-0.2142 5.0216,-0.1935 5.0216,0.4514 0,0.3715 -0.3965,3.9849 -0.8811,8.0296 -0.4845,4.044798 -0.881,7.535098 -0.881,7.756398 0,0.3701 4.2841,0.4198 8.8978,0.1034 0.8294,-0.0569 1.3215,0.0636 1.3215,0.3237 0,0.8586 -2.5845,7.1194 -4.128,9.9997 -4.7694,8.9004 -10.2379,13.3453 -22.5655,18.3418 -1.5989,0.648 -2.9027,1.266 -2.8971,1.3732 0.006,0.1073 2.2652,1.4743 5.0215,3.0379 2.7563,1.5636 9.1741,5.2036 14.2616,8.0891 5.0876,2.8855 9.2377,5.3326 9.2225,5.4382 -0.0367,0.2552 -15.3851,13.5518 -15.8044,13.6917 -0.2724,0.091 -10.5706,-12.4605 -15.787,-19.2411 -0.8194,-1.0651 -1.5623,-2.009 -1.6508,-2.0976 -0.0886,-0.0886 -0.0678,4.1984 0.0463,9.5267 l 0.2075,9.6879 -4.5472,0.2174 c -2.501,0.1197 -5.6177,0.2967 -6.926,0.3935 -1.7923,0.1326 -2.3786,0.0646 -2.3786,-0.2762 0,-0.6228 0.658,-6.1475 0.9121,-7.6577 l 0.2075,-1.2333 -0.824,0.7485 c -3.0817,2.799 -6.8948,4.3494 -10.7152,4.357 -5.5212,0.0108 -10.0266,-2.7604 -13.9564,-8.5845 -0.1335,-0.1977 -1.2393,0.5852 -2.5238,1.7868 -4.0679,3.8053 -9.2406,5.5193 -14.2885,4.7345 -2.8426,-0.4419 -6.0079,-1.7115 -8.0349,-3.2228 l -1.2895,-0.9615 -1.4921,1.9806 c -5.2915,7.0239 -15.589403,11.0471 -30.153909,11.7802 -1.676,0.0845 -3.2603,0.0219 -3.5204,-0.1389 l -4e-4,0 z m 9.573303,-27.0564 c 4.7201,-1.3498 7.0376,-3.2109 7.0376,-5.6512 0,-2.1759 -1.2008,-3.0054 -4.5198,-3.1219 -1.4873,-0.0522 -3.6475,0.1057 -4.8003,0.3509 l -2.096303,0.4461 0.0757,2.1143 c 0.0415,1.1628 0.1709,3.1054 0.2873,4.3167 0.247,2.5713 0.324,2.601 4.015903,1.5451 l -10e-5,0 z m 68.722806,-3.0594 c 2.3183,-2.2638 2.8704,-5.7402 1.3955,-8.787 -2.1427,-4.4262 -7.589,-4.5335 -9.7818,-0.193 -1.5533,3.0749 -0.7458,7.8138 1.6031,9.4078 1.57,1.0653 1.9356,1.1681 3.7052,1.042 1.4075,-0.1003 1.9316,-0.3507 3.078,-1.47 l 0,2e-4 z m -29.336,0.4025 c 1.3171,-0.6853 2.4047,-1.9205 3.0491,-3.4628 0.6916,-1.6553 0.6916,-3.1149 0,-4.7702 -1.1182,-2.6762 -3.2197,-4.0985 -5.9146,-4.0031 -3.592,0.1271 -5.9545,2.5694 -5.9911,6.1938 -0.0379,3.7489 2.5223,6.5374 6.0023,6.5374 1.0466,0 2.3311,-0.2228 2.8543,-0.495 l 0,-10e-5 z m 52.6148,-8.6207 c 2.3293,-2.3952 4.3837,-6.3487 5.7009,-10.9704 0.975,-3.421 1.8615,-7.6825 1.6366,-7.8679 -0.1338,-0.1104 -11.4513,0.8198 -15.9212,1.3086 -1.6603,0.1815 -1.6739,0.1746 -1.6739,-0.8575 0,-0.5723 -0.1445,-1.0405 -0.3212,-1.0405 -0.1768,0 -2.1692,0.2539 -4.4277,0.5645 -2.2584,0.3105 -4.1622,0.5087 -4.2305,0.4403 -0.0683,-0.0683 -0.2387,-2.3808 -0.3788,-5.1388 l -0.2545,-5.0146 -1.0971,-0.2058 c -0.6034,-0.1132 -1.8774,-0.1558 -2.8313,-0.0948 l -1.734,0.1109 -1.168,4.2287 c -0.6423,2.3258 -1.1697,4.4892 -1.1721,4.8076 -0.006,0.8268 -0.7324,1.0068 -4.0642,1.0068 l -2.9452,0 -0.1093,1.3164 -0.1094,1.3164 -1.5014,-0.1103 c -7.6947,-0.5649 -24.4398,-2.0933 -24.5909,-2.2444 -0.1054,-0.1055 0.0379,-2.3917 0.3185,-5.0803 0.2806,-2.6886 0.4685,-4.9322 0.4178,-4.9856 -0.0509,-0.0534 -1.4905,1.7644 -3.1993,4.0393 l -3.1068,4.1363 -6.8007,-7.0346 c -3.7404,-3.868998 -6.804703,-6.941898 -6.809803,-6.828798 -0.005,0.1131 0.7986,2.2539 1.786103,4.757298 0.9874,2.5033 2.2443,5.7595 2.793,7.2357 l 0.9977,2.6843 -3.5104,0.3991 c -1.930703,0.2195 -3.901203,0.3992 -4.378803,0.3992 -1.1444,0 -1.0953,0.3573 0.2211,1.6079 2.5095,2.3841 3.3281,5.9414 2.2682,9.8569 -0.3404,1.2577 -0.7594,2.3734 -0.9311,2.4795 -0.7399,0.4573 -0.1782,0.791 1.7141,1.0186 2.819203,0.3391 4.970903,0.8855 6.505203,1.6514 0.7191,0.3591 1.4558,0.6528 1.6372,0.6528 0.1812,0 0.8372,-0.791 1.4575,-1.7577 2.6975,-4.2036 7.7993,-7.4439 12.8651,-8.171 5.2853,-0.7586 10.7196,1.1445 14.6723,5.1384 l 2.1968,2.2195 1.4877,-1.9791 c 1.6756,-2.2292 3.7489,-3.8419 6.7416,-5.2443 1.7874,-0.8374 2.465,-0.9537 5.5594,-0.9537 3.2369,0 3.7187,0.0923 5.9157,1.133 2.7146,1.2858 6.1813,4.3813 7.5812,6.7696 0.8697,1.4837 0.9253,1.5179 1.1412,0.7048 0.1248,-0.4701 0.434,-2.8933 0.6872,-5.385 l 0.4603,-4.5303 3.0312,0.2411 c 5.1683,0.411 4.6169,-0.5416 4.6169,7.9768 0,5.4942 0.1074,7.362 0.4233,7.362 0.2328,0 1.3281,-0.9306 2.4341,-2.0679 l -3e-4,-4e-4 z m -91.986706,-3.9355 c 1.3324,-0.6798 2.4417,-2.1941 2.4417,-3.3334 0,-0.3091 -0.3891,-0.9513 -0.8649,-1.4271 -0.7366,-0.7366 -1.1968,-0.8649 -3.101,-0.8649 -1.229803,0 -2.386703,0.15 -2.570903,0.3331 -0.184,0.1833 -0.2828,1.708 -0.2196,3.3884 l 0.1152,3.0553 1.4149,-0.2263 c 0.778203,-0.1244 2.031303,-0.5407 2.784803,-0.9251 l -2e-4,0 z M 158.01976,95.132502 c 0.8991,-0.004 0.978,-0.1 0.8028,-0.9739 -0.1068,-0.533 -0.2382,-2.8322 -0.2923,-5.1093 -0.0539,-2.2771 -0.2171,-4.1403 -0.3624,-4.1406 -0.1453,-3e-4 -0.266,0.2771 -0.268,0.6162 -0.002,0.3393 -0.5571,2.5887 -1.2333,4.9989 -0.6763,2.4102 -1.2296,4.5298 -1.2296,4.7103 0,0.1805 0.3568,0.2324 0.7929,0.1156 0.4361,-0.1168 1.2416,-0.2147 1.7899,-0.2174 l 0,2e-4 z m -56.6746,-14.7998 c 2.1206,-0.9243 3.0676,-2.1469 3.2664,-4.21691 0.3002,-3.124797 -1.4768,-4.598202 -5.545603,-4.598202 -2.4886,0 -2.3443,-0.4936 -1.5998,5.475402 0.2891,2.31841 0.527,4.25801 0.5286,4.31011 0.006,0.1965 1.9946,-0.3795 3.350603,-0.9704 l -2e-4,0 z"
   inkscape:connector-curvature="0"
   style="fill:#000000;stroke:#000000;stroke-width:0.0762" /><path
   id="path3007_0"
   class="fil0 str0"
   d="m 192.93399,58.056024 c -0.0534,-1.411994 -0.18282,-5.065173 -0.41315,-10.353776 -3.95236,6.030428 -10.50288,9.974827 -17.91461,9.974827 -7.33016,0 -13.81796,-3.857879 -17.78327,-9.776049 -1.23955,1.37538 -2.84175,2.623155 -4.80682,3.744291 -3.77862,2.17255 -8.20962,3.544062 -13.28531,4.114299 0.0698,0.189957 0.1131,0.290978 0.12434,0.283969 l -8.25711,0.887315 c -0.19178,0 -2.35695,0.275873 -4.81105,0.613495 -2.45374,0.33738 -4.52237,0.552593 -4.59668,0.478398 -0.0743,-0.07431 -0.25921,-2.586782 -0.41146,-5.58381 l -0.2766,-5.448714 -1.19207,-0.22343 c -0.65555,-0.123013 -2.0401,-0.169173 -3.07641,-0.103199 l -1.88424,0.120597 -1.26891,4.594629 c -0.69821,2.52721 -1.27098,4.877875 -1.27364,5.224076 -0.006,0.89831 -0.79572,1.093827 -4.41615,1.093827 l -3.19993,0 -5.923123,0.219321 6.314403,-13.046171 0.77408,-1.723031 c 0.42596,-0.947614 2.59284,-6.203228 4.81554,-11.678768 l -6.1e-4,0 c 2.22209,-5.474814 5.35833,-13.228877 6.96898,-17.22995 l 0.8617,-2.141011 -2.47029,2.128685 -10.97151,20.929169 7.2e-4,0 c -2.62472,5.844459 -6.328413,14.120786 -8.230653,18.39169 l -3.458143,7.765302 -2.52311,0.120959 -2.52297,0.12108 -1.45236,-4.821201 -4.862233,-10.768724 -4.120995,10.768724 -1.312905,4.821201 -2.280211,-0.12108 -2.280221,-0.120959 -3.125719,-7.765302 C 66.672126,49.275799 63.324663,40.999472 60.952496,35.155013 l 6.03e-4,0 C 55.638392,22.061235 49.695813,12.287362 42.132431,0.04609308 l 10.143881,0.04314 3.415732,0 c 3.864163,0 4.706648,0.208688 4.713651,1.16753892 0.0031,0.369402 2.907372,9.948364 3.652456,12.645834 l 6.396687,24.420064 c 0.0021,0.393207 0.142236,0.71512 0.310676,0.714637 l 11.63789,-11.353671 11.29985,11.353671 c 0.18645,4.83e-4 0.34137,-0.32143 0.34378,-0.714637 l 7.077736,-24.420064 c 0.82424,-2.69747 1.50106,-5.206433 1.5042,-5.575835 0.007,-0.958972 0.93976,-1.167659 5.21526,-1.167659 l 3.77922,0 8.43027,-0.159506 0.0148,-0.03673 2.13642,-0.113105 2.1363,-0.113466 1.22989,4.516809 c 0.67657,2.484432 1.97317,7.101054 2.88163,10.260006 0.90845,3.15871 2.37761,8.369009 3.26565,11.577987 0.39478,1.426374 1.81861,6.139788 3.29151,10.925825 6.36176,0.155155 13.42597,-0.06284 13.56566,-5.408959 0.0394,-1.516639 -0.374,-3.715773 -2.91015,-5.323403 -8.77068,-5.556985 -16.16126,-7.792733 -15.80962,-14.930039 0.20918,-4.254712 2.72695,-7.604829 7.84626,-10.02413 4.17388,-1.994192 9.2747,-3.098411 15.30198,-3.302145 0.32156,0.0023 0.58171,0.01172 0.76491,0.02647 0.44383,0.03613 0.7881,0.339556 1.04887,0.922962 0.73531,1.759525 2.45918,4.987716 5.18674,9.673337 0.0729,0.149598 0.11527,0.272852 0.1131,0.368314 -0.0109,0.394054 -0.27526,0.563952 -0.81046,0.52045 -0.24482,-0.02006 -0.64141,-0.07625 -1.20536,-0.193945 -0.57929,-0.119026 -1.00646,-0.189595 -1.29696,-0.21352 -4.504,-0.366261 -15.15951,-1.687989 -15.29799,3.625627 -0.0373,1.421057 0.52299,3.574273 3.08923,5.517229 2.7945,2.115876 5.87564,3.319546 8.54302,4.649611 1.927,-10.791936 10.80607,-18.952378 21.46714,-18.952378 6.51886,0 12.37142,3.052372 16.37622,7.89037 -0.44383,-7.250532 -0.71644,-13.069978 -0.6124,-13.174139 0.48432,-0.484441 6.58773,-1.098903 10.93477,-1.100957 6.4008,-0.0032 10.48622,0.847318 13.38922,2.787253 2.18984,1.462866 3.75022,2.757164 4.82846,5.881193 0.78472,2.273812 0.84393,7.17392 0.11697,9.649773 -1.70031,5.789115 -5.98524,9.909576 -12.51388,12.033307 -1.49247,0.485527 -2.67149,0.924653 -2.62049,0.97613 0.1873,0.1873 13.23511,10.287154 13.31112,10.2016 l 1.9082,-4.344326 c 0.88539,-2.113943 2.54123,-6.145708 4.22934,-10.304474 l -6.1e-4,0 c 2.22222,-5.474815 5.35845,-13.228878 6.96911,-17.22995 l 2.92826,-7.275304 2.1363,-0.113105 2.13642,-0.113466 c 1.6492,12.534264 8.12269,48.576701 8.12269,48.576701 0,0 -7.42523,1.885183 -11.27343,2.709794 -0.0743,-0.07431 -0.25944,-2.586783 -0.41145,-5.583811 l -0.27675,-5.448721 -1.19219,-0.223431 c -0.65542,-0.123013 -2.03987,-0.169173 -3.07629,-0.103198 l -1.88412,0.120596 -1.26916,4.594629 c -0.6982,2.527211 -1.27098,4.877875 -1.27351,5.224076 -0.006,0.898311 -0.79584,1.093827 -4.41615,1.093827 l -3.20004,0 -5.92301,0.219321 0.57363,-1.227476 -5.11406,-5.791489 c -3.40739,-3.524245 -6.60628,-8.186221 -6.61087,-8.083026 -0.005,0.102835 0.72745,2.053282 1.62708,4.33362 0.89953,2.280699 2.04471,5.247276 2.54437,6.591842 l 0.90919,2.445523 -3.19846,0.363602 c -1.7582,0.199987 -3.5535,0.363361 -3.98876,0.363361 -0.29085,0 -0.49725,0.02537 -0.61724,0.08652 l -5.24075,1.057455 z M 174.15732,18.950377 c 4.14898,0 7.51274,3.690278 7.51274,8.240559 0,4.550403 -3.36376,8.240679 -7.51274,8.240679 -4.1491,0 -7.51276,-3.690276 -7.51276,-8.240679 0,-4.550281 3.36366,-8.240559 7.51276,-8.240559 z m 58.82861,19.989654 c 0.97673,-0.0045 1.06241,-0.108634 0.87221,-1.058181 -0.11613,-0.579297 -0.25897,-3.077385 -0.31757,-5.551546 -0.0587,-2.473919 -0.236,-4.498684 -0.39417,-4.498925 -0.15757,-3.63e-4 -0.28893,0.301007 -0.29074,0.669443 -0.002,0.368798 -0.60552,2.812992 -1.34021,5.431675 -0.73507,2.618804 -1.33599,4.92198 -1.33599,5.11798 0,0.19612 0.38777,0.252914 0.86145,0.125551 0.47369,-0.12676 1.34892,-0.232977 1.94502,-0.236118 z m -113.78219,0 c 0.97698,-0.0045 1.06265,-0.108634 0.87234,-1.058181 -0.11625,-0.579297 -0.25896,-3.077385 -0.31757,-5.551546 -0.0587,-2.473919 -0.236,-4.498684 -0.39405,-4.498925 -0.15782,-3.63e-4 -0.28904,0.301007 -0.29086,0.669443 -0.002,0.368798 -0.60552,2.812992 -1.3401,5.431675 -0.73505,2.618804 -1.3361,4.92198 -1.3361,5.11798 0,0.19612 0.38765,0.252914 0.86145,0.125551 0.47369,-0.12676 1.34904,-0.232977 1.94489,-0.236118 z m 85.57535,-12.470865 c 1.84953,-1.499974 3.68346,-3.222044 3.86423,-5.107964 0.2737,-2.846585 -3.76362,-3.969815 -7.47045,-3.969815 -2.26681,0 -2.08713,1.832569 -1.40922,7.270044 0.26366,2.11213 0.48021,3.879026 0.48154,3.926515 0.005,0.178841 2.88715,-1.04557 4.5339,-2.11878 z"
   inkscape:connector-curvature="0"
   style="fill:#000000;stroke:#000000;stroke-width:0.09207868"
   sodipodi:nodetypes="ccsccccccccccccccscccccccccccccccccccccsccccscccccccccsccccccccccccccccccccccccscccccccccccccccccccccccccscccccccccscccsssssccccccscccccccccscccccsccc" /><path
   id="path3007_1"
   class="fil0 str0"
   d="m 9.2997736,77.242872 0.0149,-0.0339 c 0.1147,-0.2709 1.8883004,-6.920297 2.6497004,-10.222097 0.7614,-3.3017 2.0251,-8.7046 2.8083,-12.0064 1.2167,-5.1295 3.1267,-13.3365 3.5438,-15.2268 0.1502,-0.6803 0.8746,-0.7208 -10.2478004,0.5713 -4.3766997,0.5084 -7.98959971,0.8931 -8.02849971,0.855 -0.0602,-0.0589 1.19620001,-6.4122 2.98560001,-15.0986 l 0.4601,-2.2338 4.7345997,0 c 5.9575004,0 30.7522004,0.6799 31.6492004,0.8679 l 0.6683,0.14 -0.1859,3.5447 c -0.1022,1.9496 -0.2621,4.6214 -0.3554,5.9372 l -0.1695,2.3925 -6.8744,0.7775 c -3.781,0.4276 -6.8912,0.7959 -6.9117,0.8185 -0.0528,0.0582 1.2566,26.9783 1.3534,27.8232 0.044,0.3839 0.4212,-0.8097 0.8384,-2.6525 0.4172,-1.8429 1.8129,-7.7483 3.1018,-13.1233 l 2.3433,-9.7726 1.0865,-0.1933 c 0.5975,-0.1064 1.3874,-0.2006 1.7553,-0.2094 l 0.6688,-0.016 -0.1448,8.8167 -0.1448,8.8167 0.6045,-0.1517 c 0.3324,-0.0835 1.3083,-0.2344 2.1686,-0.3356 0.8603,-0.1011 1.693,-0.2635 1.8505,-0.3608 0.2298,-0.1421 2.0068,-24.4405 2.0068,-27.4408 0,-0.6302 0.188,-0.7683 1.5881,-1.1666 0.8735,-0.2485 1.6123,-0.4231 1.6417,-0.3879 0.0294,0.0351 0.5729,6.7232 1.2077,14.8624 0.6347,8.1392 1.2364,15.364 1.3368,16.055 l 0.1827,1.2565 0.236,-1.5357 c 0.1975,-1.2858 0.9372,-5.2496 3.0607,-16.4041 l 0.2791,-1.466 4.6571,0.0026 c 2.5615,0.0013 5.32,0.082 6.13,0.1793 l 1.4729,0.1768 -0.1815,2.5431 c -0.0998,1.3987 -0.2674,2.6384 -0.3725,2.755 -0.1051,0.1166 -2.1627,0.2933 -4.5723,0.3928 -2.859,0.118 -4.3863,0.2868 -4.3959,0.4861 -0.0081,0.1679 -0.1816,1.3105 -0.3854,2.5391 -0.2038,1.2286 -0.3154,2.328 -0.248,2.4431 0.0675,0.1152 1.4345,0.2094 3.038,0.2094 2.1515,0 2.9125,0.0914 2.905,0.349 -0.0203,0.6977 -0.7456,4.1296 -0.9064,4.2905 -0.0908,0.0908 -1.4606,0.3825 -3.044,0.6482 l -2.8789,0.483 -0.5099,4.1211 c -0.2804,2.2666 -0.4393,4.1915 -0.3533,4.2776 0.0861,0.0861 4.3716,-0.445 9.5231,-1.1803 5.1516,-0.7352 9.4449,-1.2583 9.5409,-1.1625 0.0959,0.0959 -0.1517,2.0288 -0.5503,4.2955 -0.3985,2.2667 -0.8781,5.0322 -1.0657,6.1456 l -0.3413,2.024297 -3.6811,0 -3.681,0 -4.7863,0.1399 -6.0269,0.0804 c -3.3148,0.0442 -6.0269,0.019 -6.0269,-0.056 0,-0.0751 0.1175,-0.7395 0.2611,-1.4765 0.1436,-0.737097 0.3414,-1.830697 0.4396,-2.430397 l 0.1786,-1.0904 -3.0922,0.1879 -3.0921,0.1878 0.0041,-1.052 c 0.0022,-0.5786 0.1278,-2.8636 0.279,-5.0777 0.1511,-2.214 0.2345,-4.0659 0.1852,-4.1152 -0.0493,-0.0492 -1.1172,0.0602 -2.3731,0.2433 l -2.2835,0.3328 0,4.5377 0,4.5376 -0.9074,0.1412 c -0.4991,0.0777 -1.9127,0.2133 -3.1413,0.3014 -1.2286,0.0881 -2.8933,0.2332 -3.6996,0.3224 l -1.4659,0.1622 0,1.2995 0,1.299497 -7.2711,0.7274 c -3.5459,0.3547 -6.558,0.6901 -7.2366,0.803 l -3.8066004,0.4777 z"
   inkscape:connector-curvature="0"
   style="fill:#000000;stroke:#000000;stroke-width:0.0762" />
</svg>